<?xml version="1.0" standalone="no"?>
<!DOCTYPE svg PUBLIC "-//W3C//DTD SVG 20010904//EN"
 "http://www.w3.org/TR/2001/REC-SVG-20010904/DTD/svg10.dtd">
<svg version="1.0" xmlns="http://www.w3.org/2000/svg"
 width="512.000000pt" height="512.000000pt" viewBox="0 0 512.000000 512.000000"
 preserveAspectRatio="xMidYMid meet">

<g transform="translate(0.000000,512.000000) scale(0.100000,-0.100000)"
fill="white" stroke="none">
<path d="M885 3619 c-268 -18 -387 -83 -436 -239 -20 -59 -22 -95 -26 -400 -8
-521 11 -676 107 -877 72 -153 185 -292 319 -394 83 -63 262 -151 361 -178
220 -60 472 -47 644 33 78 36 168 109 226 183 31 41 92 148 151 269 136 275
188 327 329 327 141 0 193 -52 330 -329 119 -242 180 -326 294 -402 210 -141
544 -159 831 -45 316 126 546 380 640 707 37 130 48 320 42 711 -5 379 -13
423 -86 507 -83 94 -214 125 -566 135 -409 11 -660 -20 -1125 -139 -365 -93
-354 -93 -720 0 -302 77 -514 116 -719 132 -150 11 -428 11 -596 -1z m789
-655 c152 -40 261 -133 242 -209 -25 -100 -229 -195 -418 -195 -227 0 -428
102 -428 217 0 82 147 177 315 203 76 11 211 4 289 -16z m2131 1 c134 -35 245
-120 245 -187 0 -116 -201 -218 -428 -218 -189 0 -393 95 -418 195 -18 71 89
168 226 205 117 32 263 34 375 5z"/>
</g>
</svg>
